<svg xmlns="http://www.w3.org/2000/svg" role="img" width="1200" height="680" viewBox="0 0 1200 680">
  <title>P74 10-6 RAG和Graph RAG有什么区别：如何构建Graph RAG 原创概念图</title>
  <desc>普通 RAG 与 Graph RAG 的边界在哪里？。图中按顺序包含本节五个核心知识节点及解释。</desc>
  <defs>
    <linearGradient id="bg" x1="0" x2="1" y1="0" y2="1">
      <stop offset="0" stop-color="#f8fafc"/>
      <stop offset="1" stop-color="#e0f2fe"/>
    </linearGradient>
    <marker id="arrow" markerWidth="12" markerHeight="12" refX="10" refY="6" orient="auto">
      <path d="M0,0 L12,6 L0,12 z" fill="#94a3b8"/>
    </marker>
    <style>
      .chapter { font: 700 22px -apple-system,BlinkMacSystemFont,"Segoe UI","PingFang SC",sans-serif; fill:#0369a1; }
      .title { font: 700 32px -apple-system,BlinkMacSystemFont,"Segoe UI","PingFang SC",sans-serif; fill:#0f172a; }
      .number { font: 700 16px -apple-system,BlinkMacSystemFont,"Segoe UI","PingFang SC",sans-serif; fill:white; }
      .node { font: 700 21px -apple-system,BlinkMacSystemFont,"Segoe UI","PingFang SC",sans-serif; fill:#0f172a; }
      .detail { font: 500 15px -apple-system,BlinkMacSystemFont,"Segoe UI","PingFang SC",sans-serif; fill:#475569; }
      .hint { font: 500 20px -apple-system,BlinkMacSystemFont,"Segoe UI","PingFang SC",sans-serif; fill:#475569; }
      .question { font: 700 24px -apple-system,BlinkMacSystemFont,"Segoe UI","PingFang SC",sans-serif; fill:white; }
      .brand { font: 500 16px -apple-system,BlinkMacSystemFont,"Segoe UI","PingFang SC",sans-serif; fill:#cbd5e1; }
    </style>
  </defs>
  <rect width="1200" height="680" rx="30" fill="url(#bg)"/>
  <text x="42" y="62" class="chapter">第 74 节 · P074 · Graph RAG</text>
  <text x="600" y="115" text-anchor="middle" class="title">10-6 RAG和Graph RAG有什么区别：如何构建Graph RAG</text>
  <text x="42" y="207" class="hint">本节完整知识链：概念、作用与前后关系都写在图内</text>
  <path d="M 236 340 L 266 340" stroke="#94a3b8" stroke-width="4" marker-end="url(#arrow)"/><path d="M 468 340 L 498 340" stroke="#94a3b8" stroke-width="4" marker-end="url(#arrow)"/><path d="M 700 340 L 730 340" stroke="#94a3b8" stroke-width="4" marker-end="url(#arrow)"/><path d="M 932 340 L 962 340" stroke="#94a3b8" stroke-width="4" marker-end="url(#arrow)"/>
  <rect x="42" y="245" width="190" height="190" rx="24" fill="white" stroke="#2563eb" stroke-width="4"/><circle cx="70" cy="270" r="16" fill="#2563eb"/><text x="70" y="277" text-anchor="middle" class="number">1</text><text x="137" y="307" text-anchor="middle" class="node">普通 RAG</text><text x="137" y="354" text-anchor="middle" class="detail">按语义相似找到文本</text><text x="137" y="376" text-anchor="middle" class="detail">片段</text><rect x="274" y="245" width="190" height="190" rx="24" fill="white" stroke="#0891b2" stroke-width="4"/><circle cx="302" cy="270" r="16" fill="#0891b2"/><text x="302" y="277" text-anchor="middle" class="number">2</text><text x="369" y="307" text-anchor="middle" class="node">Graph RAG</text><text x="369" y="354" text-anchor="middle" class="detail">按实体关系和路径组</text><text x="369" y="376" text-anchor="middle" class="detail">织证据</text><rect x="506" y="245" width="190" height="190" rx="24" fill="white" stroke="#059669" stroke-width="4"/><circle cx="534" cy="270" r="16" fill="#059669"/><text x="534" y="277" text-anchor="middle" class="number">3</text><text x="601" y="307" text-anchor="middle" class="node">优势问题</text><text x="601" y="354" text-anchor="middle" class="detail">关系查询、全局结构</text><text x="601" y="376" text-anchor="middle" class="detail">与多跳推理</text><rect x="738" y="245" width="190" height="190" rx="24" fill="white" stroke="#7c3aed" stroke-width="4"/><circle cx="766" cy="270" r="16" fill="#7c3aed"/><text x="766" y="277" text-anchor="middle" class="number">4</text><text x="833" y="307" text-anchor="middle" class="node">构建流程</text><text x="833" y="354" text-anchor="middle" class="detail">实体关系抽取→图存</text><text x="833" y="376" text-anchor="middle" class="detail">储→图检索</text><rect x="970" y="245" width="190" height="190" rx="24" fill="white" stroke="#ea580c" stroke-width="4"/><circle cx="998" cy="270" r="16" fill="#ea580c"/><text x="998" y="277" text-anchor="middle" class="number">5</text><text x="1065" y="307" text-anchor="middle" class="node">混合落地</text><text x="1065" y="354" text-anchor="middle" class="detail">图给结构、向量给语</text><text x="1065" y="376" text-anchor="middle" class="detail">义，结果共同生成</text>
  <rect x="42" y="492" width="1116" height="132" rx="24" fill="#0f172a"/>
  <text x="70" y="532" class="brand">学完必须能回答</text>
  <text x="600" y="575" text-anchor="middle" class="question">普通 RAG 与 Graph RAG 的边界在哪里？</text>
  <text x="1125" y="607" text-anchor="end" class="brand">原创示意图 · rag_study</text>
</svg>
