<svg xmlns="http://www.w3.org/2000/svg" role="img" width="1200" height="680" viewBox="0 0 1200 680">
  <title>P43 制度问答 RAG Baseline 完整实战流程</title>
  <desc>两个 PDF 与住宿 Excel 经 DeepDoc、openpyxl、二次分块、BGE-M3 和 Chroma 建库；问题经相似度检索、上下文拼接、拒答提示词和 Qwen2-72B 生成答案。</desc>
  <defs><linearGradient id="bg43" x1="0" y1="0" x2="1" y2="1"><stop stop-color="#ecfeff"/><stop offset="1" stop-color="#f5f3ff"/></linearGradient><marker id="a43" markerWidth="12" markerHeight="12" refX="10" refY="6" orient="auto"><path d="M0 0 12 6 0 12Z" fill="#64748b"/></marker><style>.h{font:700 22px -apple-system,BlinkMacSystemFont,"PingFang SC",sans-serif;fill:#0e7490}.t{font:700 29px -apple-system,BlinkMacSystemFont,"PingFang SC",sans-serif;fill:#0f172a}.n{font:700 16px -apple-system,BlinkMacSystemFont,"PingFang SC",sans-serif;fill:#0f172a}.d{font:500 13px -apple-system,BlinkMacSystemFont,"PingFang SC",sans-serif;fill:#475569}.p{stroke:#64748b;stroke-width:3.5;fill:none;marker-end:url(#a43)}</style></defs>
  <rect width="1200" height="680" rx="30" fill="url(#bg43)"/>
  <text x="42" y="55" class="h">第 7 章 · P043 · 实战：实现制度问答 RAG Baseline</text>
  <text x="600" y="101" text-anchor="middle" class="t">课程代码真正做了什么：数据形态沿两条链路逐步变化</text>
  <text x="42" y="145" style="font:700 18px -apple-system,BlinkMacSystemFont,'PingFang SC';fill:#2563eb">A. 离线知识库构建</text>
  <rect x="42" y="168" width="150" height="112" rx="18" fill="white" stroke="#2563eb" stroke-width="3"/><text x="117" y="202" text-anchor="middle" class="n">制度数据</text><text x="117" y="230" text-anchor="middle" class="d">考勤/休假 PDF</text><text x="117" y="251" text-anchor="middle" class="d">差旅标准 PDF</text><text x="117" y="272" text-anchor="middle" class="d">住宿标准 Excel</text>
  <rect x="225" y="168" width="180" height="112" rx="18" fill="white" stroke="#0891b2" stroke-width="3"/><text x="315" y="202" text-anchor="middle" class="n">解析</text><text x="315" y="230" text-anchor="middle" class="d">DeepDoc：OCR/布局/表格</text><text x="315" y="253" text-anchor="middle" class="d">openpyxl：展开并回填</text><text x="315" y="274" text-anchor="middle" class="d">Excel 合并单元格</text>
  <rect x="438" y="168" width="180" height="112" rx="18" fill="white" stroke="#059669" stroke-width="3"/><text x="528" y="202" text-anchor="middle" class="n">二次分块</text><text x="528" y="230" text-anchor="middle" class="d">文本 &gt; 200 字时再切</text><text x="528" y="253" text-anchor="middle" class="d">chunk_size = 128</text><text x="528" y="274" text-anchor="middle" class="d">overlap = 30</text>
  <rect x="651" y="168" width="155" height="112" rx="18" fill="white" stroke="#7c3aed" stroke-width="3"/><text x="728" y="202" text-anchor="middle" class="n">统一对象</text><text x="728" y="230" text-anchor="middle" class="d">文本/表格 → Markdown</text><text x="728" y="253" text-anchor="middle" class="d">封装为 Document</text><text x="728" y="274" text-anchor="middle" class="d">保留元数据</text>
  <rect x="839" y="168" width="145" height="112" rx="18" fill="white" stroke="#3157d5" stroke-width="3"/><text x="911" y="202" text-anchor="middle" class="n">BGE-M3</text><text x="911" y="230" text-anchor="middle" class="d">Document</text><text x="911" y="251" text-anchor="middle" class="d">↓</text><text x="911" y="272" text-anchor="middle" class="d">1024 维向量</text>
  <rect x="1017" y="155" width="141" height="138" rx="22" fill="#0f172a"/><text x="1087" y="198" text-anchor="middle" style="font:700 18px -apple-system,BlinkMacSystemFont,'PingFang SC';fill:white">Chroma</text><text x="1087" y="229" text-anchor="middle" style="font:500 13px -apple-system,BlinkMacSystemFont,'PingFang SC';fill:#cbd5e1">from_documents</text><text x="1087" y="253" text-anchor="middle" style="font:500 13px -apple-system,BlinkMacSystemFont,'PingFang SC';fill:#cbd5e1">集合：制度DB</text><text x="1087" y="276" text-anchor="middle" style="font:500 13px -apple-system,BlinkMacSystemFont,'PingFang SC';fill:#cbd5e1">HTTP client</text>
  <path d="M192 224H219M405 224H432M618 224H645M806 224H833M984 224H1011" class="p"/>
  <text x="42" y="354" style="font:700 18px -apple-system,BlinkMacSystemFont,'PingFang SC';fill:#7c3aed">B. 在线问答 Pipeline</text>
  <rect x="42" y="380" width="155" height="108" rx="18" fill="white" stroke="#7c3aed" stroke-width="3"/><text x="119" y="415" text-anchor="middle" class="n">员工问题</text><text x="119" y="444" text-anchor="middle" class="d">迟到如何处理？</text><text x="119" y="467" text-anchor="middle" class="d">出差标准是什么？</text>
  <rect x="230" y="380" width="170" height="108" rx="18" fill="white" stroke="#7c3aed" stroke-width="3"/><text x="315" y="415" text-anchor="middle" class="n">相似度检索</text><text x="315" y="444" text-anchor="middle" class="d">similarity_search</text><text x="315" y="467" text-anchor="middle" class="d">query + k → Documents</text>
  <rect x="433" y="380" width="170" height="108" rx="18" fill="white" stroke="#7c3aed" stroke-width="3"/><text x="518" y="415" text-anchor="middle" class="n">上下文</text><text x="518" y="444" text-anchor="middle" class="d">取 page_content</text><text x="518" y="467" text-anchor="middle" class="d">拼成一个 context</text>
  <rect x="636" y="380" width="180" height="108" rx="18" fill="white" stroke="#7c3aed" stroke-width="3"/><text x="726" y="415" text-anchor="middle" class="n">提示词增强</text><text x="726" y="444" text-anchor="middle" class="d">任务 + 问题 + context</text><text x="726" y="467" text-anchor="middle" class="d">无依据回答“不知道”</text>
  <rect x="849" y="380" width="145" height="108" rx="18" fill="white" stroke="#7c3aed" stroke-width="3"/><text x="921" y="415" text-anchor="middle" class="n">Qwen2-72B</text><text x="921" y="444" text-anchor="middle" class="d">OpenAI-compatible</text><text x="921" y="467" text-anchor="middle" class="d">流式输出</text>
  <rect x="1027" y="368" width="131" height="132" rx="22" fill="#0f172a"/><text x="1092" y="409" text-anchor="middle" style="font:700 17px -apple-system,BlinkMacSystemFont,'PingFang SC';fill:white">核查</text><text x="1092" y="441" text-anchor="middle" style="font:500 13px -apple-system,BlinkMacSystemFont,'PingFang SC';fill:#cbd5e1">答案能否在</text><text x="1092" y="463" text-anchor="middle" style="font:500 13px -apple-system,BlinkMacSystemFont,'PingFang SC';fill:#cbd5e1">Top-k 上下文</text><text x="1092" y="485" text-anchor="middle" style="font:500 13px -apple-system,BlinkMacSystemFont,'PingFang SC';fill:#cbd5e1">找到依据？</text>
  <path d="M197 434H224M400 434H427M603 434H630M816 434H843M994 434H1021" class="p"/>
  <path d="M1087 293V326C1087 350 315 350 315 374" class="p"/>
  <rect x="150" y="555" width="900" height="78" rx="22" fill="#0e7490"/><text x="600" y="586" text-anchor="middle" style="font:700 19px -apple-system,BlinkMacSystemFont,'PingFang SC';fill:white">学完必须能回答：数据如何从原文件走到最终答案？</text><text x="600" y="615" text-anchor="middle" style="font:500 15px -apple-system,BlinkMacSystemFont,'PingFang SC';fill:#cffafe">同时查看问题、Top-k 文档、拼接上下文、最终答案；两道演示题正确只说明链路跑通</text>
</svg>
