<svg xmlns="http://www.w3.org/2000/svg" role="img" width="1200" height="680" viewBox="0 0 1200 680">
  <title>P39 第 7 章企业制度问答 Baseline 学习路线</title>
  <desc>从前置组件出发，依次经过需求分析、技术选型、架构设计、实现测试和 Baseline 复盘，进入评估迭代。</desc>
  <defs>
    <linearGradient id="bg39" x1="0" x2="1"><stop stop-color="#eff6ff"/><stop offset="1" stop-color="#ecfeff"/></linearGradient>
    <marker id="a39" markerWidth="12" markerHeight="12" refX="10" refY="6" orient="auto"><path d="M0 0 12 6 0 12Z" fill="#64748b"/></marker>
    <style>.h{font:700 22px -apple-system,BlinkMacSystemFont,"PingFang SC",sans-serif;fill:#0369a1}.t{font:700 31px -apple-system,BlinkMacSystemFont,"PingFang SC",sans-serif;fill:#0f172a}.n{font:700 19px -apple-system,BlinkMacSystemFont,"PingFang SC",sans-serif;fill:#0f172a}.d{font:500 15px -apple-system,BlinkMacSystemFont,"PingFang SC",sans-serif;fill:#475569}.p{stroke:#64748b;stroke-width:4;fill:none;marker-end:url(#a39)}</style>
  </defs>
  <rect width="1200" height="680" rx="30" fill="url(#bg39)"/>
  <text x="44" y="58" class="h">第 7 章 · P039 · 企业制度问答 Baseline</text>
  <text x="600" y="110" text-anchor="middle" class="t">本章不是再学零件，而是按软件工程顺序把零件接成系统</text>
  <rect x="44" y="170" width="1112" height="96" rx="20" fill="#0f172a"/>
  <text x="600" y="208" text-anchor="middle" style="font:700 19px -apple-system,BlinkMacSystemFont,'PingFang SC';fill:white">前六章已经具备</text>
  <text x="600" y="240" text-anchor="middle" style="font:500 17px -apple-system,BlinkMacSystemFont,'PingFang SC';fill:#cbd5e1">LLM · Embedding · 向量数据库 · LangChain · 复杂文档解析与分块</text>
  <path d="M600 266V305" class="p"/>
  <g>
    <rect x="44" y="322" width="190" height="128" rx="20" fill="white" stroke="#2563eb" stroke-width="3"/><text x="139" y="365" text-anchor="middle" class="n">P40 需求分析</text><text x="139" y="397" text-anchor="middle" class="d">痛点、功能、依赖数据</text><text x="139" y="423" text-anchor="middle" class="d">先定义问题</text>
    <rect x="274" y="322" width="190" height="128" rx="20" fill="white" stroke="#0891b2" stroke-width="3"/><text x="369" y="365" text-anchor="middle" class="n">P41 技术选型</text><text x="369" y="397" text-anchor="middle" class="d">BGE-M3 / Chroma</text><text x="369" y="423" text-anchor="middle" class="d">Qwen2 / DeepDoc</text>
    <rect x="504" y="322" width="190" height="128" rx="20" fill="white" stroke="#059669" stroke-width="3"/><text x="599" y="365" text-anchor="middle" class="n">P42 架构设计</text><text x="599" y="397" text-anchor="middle" class="d">离线建库</text><text x="599" y="423" text-anchor="middle" class="d">在线问答</text>
    <rect x="734" y="322" width="190" height="128" rx="20" fill="white" stroke="#7c3aed" stroke-width="3"/><text x="829" y="365" text-anchor="middle" class="n">P43 开发测试</text><text x="829" y="397" text-anchor="middle" class="d">入库、检索、提示词</text><text x="829" y="423" text-anchor="middle" class="d">加班与差旅测试</text>
    <rect x="964" y="322" width="192" height="128" rx="20" fill="white" stroke="#3157d5" stroke-width="3"/><text x="1060" y="365" text-anchor="middle" class="n">P44 Baseline</text><text x="1060" y="397" text-anchor="middle" class="d">能运行 ≠ 能上线</text><text x="1060" y="423" text-anchor="middle" class="d">进入评估迭代</text>
  </g>
  <path d="M234 386H268M464 386H498M694 386H728M924 386H958" class="p"/>
  <rect x="260" y="515" width="680" height="102" rx="24" fill="#0369a1"/>
  <text x="600" y="555" text-anchor="middle" style="font:700 22px -apple-system,BlinkMacSystemFont,'PingFang SC';fill:white">学完必须能回答 · 本章最终产物是什么？</text>
  <text x="600" y="588" text-anchor="middle" style="font:500 18px -apple-system,BlinkMacSystemFont,'PingFang SC';fill:#e0f2fe">内部知识库 + 查询—检索—增强—生成 Pipeline + 可继续评测的第一版</text>
</svg>
