<svg xmlns="http://www.w3.org/2000/svg" role="img" width="1200" height="680" viewBox="0 0 1200 680">
  <title>P64 9-14 实战：用检索增强技术提升制度问答模块性能-融合检索 原创概念图</title>
  <desc>先为中文建立 jieba 分词的 BM25 检索器，再与 Chroma 稠密检索器按权重交给 EnsembleRetriever 融合。</desc>
  <defs>
    <linearGradient id="bg" x1="0" x2="1" y1="0" y2="1">
      <stop offset="0" stop-color="#f8fafc"/>
      <stop offset="1" stop-color="#e0f2fe"/>
    </linearGradient>
    <marker id="arrow" markerWidth="12" markerHeight="12" refX="10" refY="6" orient="auto">
      <path d="M0,0 L12,6 L0,12 z" fill="#94a3b8"/>
    </marker>
    <style>
      .chapter { font: 700 22px -apple-system,BlinkMacSystemFont,"Segoe UI","PingFang SC",sans-serif; fill:#0369a1; }
      .title { font: 700 32px -apple-system,BlinkMacSystemFont,"Segoe UI","PingFang SC",sans-serif; fill:#0f172a; }
      .number { font: 700 16px -apple-system,BlinkMacSystemFont,"Segoe UI","PingFang SC",sans-serif; fill:white; }
      .node { font: 700 21px -apple-system,BlinkMacSystemFont,"Segoe UI","PingFang SC",sans-serif; fill:#0f172a; }
      .detail { font: 500 15px -apple-system,BlinkMacSystemFont,"Segoe UI","PingFang SC",sans-serif; fill:#475569; }
      .hint { font: 500 20px -apple-system,BlinkMacSystemFont,"Segoe UI","PingFang SC",sans-serif; fill:#475569; }
      .question { font: 700 24px -apple-system,BlinkMacSystemFont,"Segoe UI","PingFang SC",sans-serif; fill:white; }
      .brand { font: 500 16px -apple-system,BlinkMacSystemFont,"Segoe UI","PingFang SC",sans-serif; fill:#cbd5e1; }
    </style>
  </defs>
  <rect width="1200" height="680" rx="30" fill="url(#bg)"/>
  <text x="42" y="62" class="chapter">第 64 节 · P064 · 高级检索增强</text>
  <text x="600" y="115" text-anchor="middle" class="title">融合检索：BM25 + Chroma + EnsembleRetriever</text>
  <text x="42" y="207" class="hint">本节完整知识链：概念、作用与前后关系都写在图内</text>
  <path d="M 236 340 L 266 340" stroke="#94a3b8" stroke-width="4" marker-end="url(#arrow)"/><path d="M 468 340 L 498 340" stroke="#94a3b8" stroke-width="4" marker-end="url(#arrow)"/><path d="M 700 340 L 730 340" stroke="#94a3b8" stroke-width="4" marker-end="url(#arrow)"/><path d="M 932 340 L 962 340" stroke="#94a3b8" stroke-width="4" marker-end="url(#arrow)"/>
  <rect x="42" y="245" width="190" height="190" rx="24" fill="white" stroke="#2563eb" stroke-width="4"/><circle cx="70" cy="270" r="16" fill="#2563eb"/><text x="70" y="277" text-anchor="middle" class="number">1</text><text x="137" y="307" text-anchor="middle" class="node">jieba 分词</text><text x="137" y="354" text-anchor="middle" class="detail">中文文本先切词</text><text x="137" y="376" text-anchor="middle" class="detail">再进入 BM25 统计</text><rect x="274" y="245" width="190" height="190" rx="24" fill="white" stroke="#0891b2" stroke-width="4"/><circle cx="302" cy="270" r="16" fill="#0891b2"/><text x="302" y="277" text-anchor="middle" class="number">2</text><text x="369" y="307" text-anchor="middle" class="node">BM25Retriever</text><text x="369" y="354" text-anchor="middle" class="detail">以大文档列表建库</text><text x="369" y="376" text-anchor="middle" class="detail">课程返回 3 篇</text><rect x="506" y="245" width="190" height="190" rx="24" fill="white" stroke="#059669" stroke-width="4"/><circle cx="534" cy="270" r="16" fill="#059669"/><text x="534" y="277" text-anchor="middle" class="number">3</text><text x="601" y="307" text-anchor="middle" class="node">Chroma 检索器</text><text x="601" y="354" text-anchor="middle" class="detail">as_retriever 转换</text><text x="601" y="376" text-anchor="middle" class="detail">提供稠密语义候选</text><rect x="738" y="245" width="190" height="190" rx="24" fill="white" stroke="#7c3aed" stroke-width="4"/><circle cx="766" cy="270" r="16" fill="#7c3aed"/><text x="766" y="277" text-anchor="middle" class="number">4</text><text x="833" y="307" text-anchor="middle" class="node">Ensemble</text><text x="833" y="354" text-anchor="middle" class="detail">传入两路检索器</text><text x="833" y="376" text-anchor="middle" class="detail">并设置相对权重</text><rect x="970" y="245" width="190" height="190" rx="24" fill="white" stroke="#3157d5" stroke-width="4"/><circle cx="998" cy="270" r="16" fill="#3157d5"/><text x="998" y="277" text-anchor="middle" class="number">5</text><text x="1065" y="307" text-anchor="middle" class="node">直接进入 RAG</text><text x="1065" y="354" text-anchor="middle" class="detail">融合文档已经检索好</text><text x="1065" y="376" text-anchor="middle" class="detail">不再重复查询知识库</text>
  <rect x="42" y="492" width="1116" height="132" rx="24" fill="#0f172a"/>
  <text x="70" y="532" class="brand">学完必须能回答</text>
  <text x="600" y="575" text-anchor="middle" class="question">视频怎样把中文 BM25 与 Chroma 稠密检索接到一起？</text>
  <text x="1125" y="607" text-anchor="end" class="brand">原创示意图 · rag_study</text>
</svg>
